<svg id="visual" viewBox="0 0 1440 200" width="1440" height="200" xmlns="http://www.w3.org/2000/svg" xmlns:xlink="http://www.w3.org/1999/xlink" version="1.1"><path d="M0 48L15 50.3C30 52.7 60 57.3 90 58.2C120 59 150 56 180 52.8C210 49.7 240 46.3 270 40.8C300 35.3 330 27.7 360 27.7C390 27.7 420 35.3 450 39.2C480 43 510 43 540 46.5C570 50 600 57 630 62.2C660 67.3 690 70.7 720 66.8C750 63 780 52 810 44C840 36 870 31 900 31.5C930 32 960 38 990 46.2C1020 54.3 1050 64.7 1080 65.5C1110 66.3 1140 57.7 1170 49.3C1200 41 1230 33 1260 35.8C1290 38.7 1320 52.3 1350 56.3C1380 60.3 1410 54.7 1425 51.8L1440 49L1440 0L1425 0C1410 0 1380 0 1350 0C1320 0 1290 0 1260 0C1230 0 1200 0 1170 0C1140 0 1110 0 1080 0C1050 0 1020 0 990 0C960 0 930 0 900 0C870 0 840 0 810 0C780 0 750 0 720 0C690 0 660 0 630 0C600 0 570 0 540 0C510 0 480 0 450 0C420 0 390 0 360 0C330 0 300 0 270 0C240 0 210 0 180 0C150 0 120 0 90 0C60 0 30 0 15 0L0 0Z" fill="#FFDEBF" stroke-linecap="round" stroke-linejoin="miter"></path></svg>